<svg width="77" height="42" viewBox="0 0 77 42" fill="none" xmlns="http://www.w3.org/2000/svg">
<rect width="76.4231" height="35.8721" rx="8" fill="#FE5723"/>
<path fill-rule="evenodd" clip-rule="evenodd" d="M19.5 26L18.2675 24.9251C13.89 21.1035 11 18.5817 11 15.4959C11 12.9741 13.0528 11 15.675 11C17.154 11 18.5735 11.6621 19.5 12.7044C20.4265 11.6621 21.846 11 23.325 11C25.9473 11 28 12.9741 28 15.4959C28 18.5817 25.11 21.1035 20.7325 24.9251L19.5 26Z" fill="white" stroke="white" stroke-width="1.5"/>
<path d="M42.4072 25H40.7725V14.1631L37.4941 15.3672V13.8906L42.1523 12.1416H42.4072V25ZM55.5557 25H47.1709V23.8311L51.6006 18.9092C52.2568 18.165 52.708 17.5615 52.9541 17.0986C53.2061 16.6299 53.332 16.1465 53.332 15.6484C53.332 14.9805 53.1299 14.4326 52.7256 14.0049C52.3213 13.5771 51.7822 13.3633 51.1084 13.3633C50.2998 13.3633 49.6699 13.5947 49.2188 14.0576C48.7734 14.5146 48.5508 15.1533 48.5508 15.9736H46.9248C46.9248 14.7959 47.3027 13.8438 48.0586 13.1172C48.8203 12.3906 49.8369 12.0273 51.1084 12.0273C52.2979 12.0273 53.2383 12.3408 53.9297 12.9678C54.6211 13.5889 54.9668 14.418 54.9668 15.4551C54.9668 16.7148 54.1641 18.2148 52.5586 19.9551L49.1309 23.6729H55.5557V25ZM65.3027 19.542C65.3027 21.4463 64.9775 22.8613 64.3271 23.7871C63.6768 24.7129 62.6602 25.1758 61.2773 25.1758C59.9121 25.1758 58.9014 24.7246 58.2451 23.8223C57.5889 22.9141 57.249 21.5605 57.2256 19.7617V17.5908C57.2256 15.71 57.5508 14.3125 58.2012 13.3984C58.8516 12.4844 59.8711 12.0273 61.2598 12.0273C62.6367 12.0273 63.6504 12.4697 64.3008 13.3545C64.9512 14.2334 65.2852 15.5928 65.3027 17.4326V19.542ZM63.6768 17.3184C63.6768 15.9414 63.4834 14.9395 63.0967 14.3125C62.71 13.6797 62.0977 13.3633 61.2598 13.3633C60.4277 13.3633 59.8213 13.6768 59.4404 14.3037C59.0596 14.9307 58.8633 15.8945 58.8516 17.1953V19.7969C58.8516 21.1797 59.0508 22.2021 59.4492 22.8643C59.8535 23.5205 60.4629 23.8486 61.2773 23.8486C62.0801 23.8486 62.6748 23.5381 63.0615 22.917C63.4541 22.2959 63.6592 21.3174 63.6768 19.9814V17.3184Z" fill="white"/>
<path d="M39.0311 40.3285C38.6308 40.8486 37.8466 40.8486 37.4463 40.3285L34.0752 35.9495C33.5691 35.2919 34.0378 34.3395 34.8677 34.3395L41.6097 34.3395C42.4395 34.3395 42.9083 35.2919 42.4021 35.9495L39.0311 40.3285Z" fill="#FE5723"/>
</svg>
