<svg width="174" height="34" viewBox="0 0 174 34" fill="none" xmlns="http://www.w3.org/2000/svg">
<path d="M6.04688 15H4.15625V5.86719L1.36719 6.82031V5.21875L5.80469 3.58594H6.04688V15ZM10.3906 17.5625L9.36719 16.9531C9.66927 16.4792 9.875 16.0651 9.98438 15.7109C10.099 15.362 10.1589 15.0052 10.1641 14.6406V13.1641H11.875L11.8672 14.5312C11.862 15.0833 11.7214 15.6354 11.4453 16.1875C11.1745 16.7448 10.8229 17.2031 10.3906 17.5625ZM19.9375 10.9453H21.3516V12.4688H19.9375V15H18.0391V12.4688H13.125L13.0703 11.3125L17.9766 3.625H19.9375V10.9453ZM15.0625 10.9453H18.0391V6.19531L17.8984 6.44531L15.0625 10.9453ZM29.7734 6.625C29.7734 7.18229 29.6302 7.67969 29.3438 8.11719C29.0573 8.54948 28.6667 8.89062 28.1719 9.14062C28.7656 9.41667 29.2214 9.79427 29.5391 10.2734C29.862 10.7526 30.0234 11.2943 30.0234 11.8984C30.0234 12.8984 29.6849 13.6927 29.0078 14.2812C28.3307 14.8646 27.4297 15.1562 26.3047 15.1562C25.1745 15.1562 24.2682 14.862 23.5859 14.2734C22.9089 13.6849 22.5703 12.8932 22.5703 11.8984C22.5703 11.2891 22.7318 10.7422 23.0547 10.2578C23.3776 9.77344 23.8307 9.40104 24.4141 9.14062C23.9245 8.89062 23.5365 8.54948 23.25 8.11719C22.9688 7.67969 22.8281 7.18229 22.8281 6.625C22.8281 5.65625 23.1406 4.88802 23.7656 4.32031C24.3906 3.7526 25.2344 3.46875 26.2969 3.46875C27.3646 3.46875 28.2109 3.7526 28.8359 4.32031C29.4609 4.88802 29.7734 5.65625 29.7734 6.625ZM28.125 11.8047C28.125 11.2422 27.9557 10.7891 27.6172 10.4453C27.2839 10.0964 26.8411 9.92188 26.2891 9.92188C25.737 9.92188 25.2943 10.0938 24.9609 10.4375C24.6328 10.7812 24.4688 11.237 24.4688 11.8047C24.4688 12.362 24.6302 12.8073 24.9531 13.1406C25.2812 13.474 25.7318 13.6406 26.3047 13.6406C26.8776 13.6406 27.3229 13.4792 27.6406 13.1562C27.9635 12.8333 28.125 12.3828 28.125 11.8047ZM27.8828 6.69531C27.8828 6.20052 27.7396 5.79427 27.4531 5.47656C27.1667 5.15365 26.7812 4.99219 26.2969 4.99219C25.8125 4.99219 25.4297 5.14583 25.1484 5.45312C24.8672 5.75521 24.7266 6.16927 24.7266 6.69531C24.7266 7.21615 24.8672 7.63021 25.1484 7.9375C25.4349 8.24479 25.8203 8.39844 26.3047 8.39844C26.7891 8.39844 27.1719 8.24479 27.4531 7.9375C27.7396 7.63021 27.8828 7.21615 27.8828 6.69531ZM39.2734 4.67969L34.7266 15H32.7344L37.2734 5.14844H31.3906V3.625H39.2734V4.67969ZM6.79883 27.6602V31H5.67383V22.4688H8.82031C9.75391 22.4688 10.4844 22.707 11.0117 23.1836C11.543 23.6602 11.8086 24.291 11.8086 25.0762C11.8086 25.9043 11.5488 26.543 11.0293 26.9922C10.5137 27.4375 9.77344 27.6602 8.80859 27.6602H6.79883ZM6.79883 26.7402H8.82031C9.42188 26.7402 9.88281 26.5996 10.2031 26.3184C10.5234 26.0332 10.6836 25.623 10.6836 25.0879C10.6836 24.5801 10.5234 24.1738 10.2031 23.8691C9.88281 23.5645 9.44336 23.4062 8.88477 23.3945H6.79883V26.7402ZM12.7051 27.7715C12.7051 27.1504 12.8262 26.5918 13.0684 26.0957C13.3145 25.5996 13.6543 25.2168 14.0879 24.9473C14.5254 24.6777 15.0234 24.543 15.582 24.543C16.4453 24.543 17.1426 24.8418 17.6738 25.4395C18.209 26.0371 18.4766 26.832 18.4766 27.8242V27.9004C18.4766 28.5176 18.3574 29.0723 18.1191 29.5645C17.8848 30.0527 17.5469 30.4336 17.1055 30.707C16.668 30.9805 16.1641 31.1172 15.5938 31.1172C14.7344 31.1172 14.0371 30.8184 13.502 30.2207C12.9707 29.623 12.7051 28.832 12.7051 27.8477V27.7715ZM13.7949 27.9004C13.7949 28.6035 13.957 29.168 14.2812 29.5938C14.6094 30.0195 15.0469 30.2324 15.5938 30.2324C16.1445 30.2324 16.582 30.0176 16.9062 29.5879C17.2305 29.1543 17.3926 28.5488 17.3926 27.7715C17.3926 27.0762 17.2266 26.5137 16.8945 26.084C16.5664 25.6504 16.1289 25.4336 15.582 25.4336C15.0469 25.4336 14.6152 25.6465 14.2871 26.0723C13.959 26.498 13.7949 27.1074 13.7949 27.9004ZM23.5273 29.3184C23.5273 29.0254 23.416 28.7988 23.1934 28.6387C22.9746 28.4746 22.5898 28.334 22.0391 28.2168C21.4922 28.0996 21.0566 27.959 20.7324 27.7949C20.4121 27.6309 20.1738 27.4355 20.0176 27.209C19.8652 26.9824 19.7891 26.7129 19.7891 26.4004C19.7891 25.8809 20.0078 25.4414 20.4453 25.082C20.8867 24.7227 21.4492 24.543 22.1328 24.543C22.8516 24.543 23.4336 24.7285 23.8789 25.0996C24.3281 25.4707 24.5527 25.9453 24.5527 26.5234H23.4629C23.4629 26.2266 23.3359 25.9707 23.082 25.7559C22.832 25.541 22.5156 25.4336 22.1328 25.4336C21.7383 25.4336 21.4297 25.5195 21.207 25.6914C20.9844 25.8633 20.873 26.0879 20.873 26.3652C20.873 26.627 20.9766 26.8242 21.1836 26.957C21.3906 27.0898 21.7637 27.2168 22.3027 27.3379C22.8457 27.459 23.2852 27.6035 23.6211 27.7715C23.957 27.9395 24.2051 28.1426 24.3652 28.3809C24.5293 28.6152 24.6113 28.9023 24.6113 29.2422C24.6113 29.8086 24.3848 30.2637 23.9316 30.6074C23.4785 30.9473 22.8906 31.1172 22.168 31.1172C21.6602 31.1172 21.2109 31.0273 20.8203 30.8477C20.4297 30.668 20.123 30.418 19.9004 30.0977C19.6816 29.7734 19.5723 29.4238 19.5723 29.0488H20.6562C20.6758 29.4121 20.8203 29.7012 21.0898 29.916C21.3633 30.127 21.7227 30.2324 22.168 30.2324C22.5781 30.2324 22.9062 30.1504 23.1523 29.9863C23.4023 29.8184 23.5273 29.5957 23.5273 29.3184ZM27.4941 23.125V24.6602H28.6777V25.498H27.4941V29.4297C27.4941 29.6836 27.5469 29.875 27.6523 30.0039C27.7578 30.1289 27.9375 30.1914 28.1914 30.1914C28.3164 30.1914 28.4883 30.168 28.707 30.1211V31C28.4219 31.0781 28.1445 31.1172 27.875 31.1172C27.3906 31.1172 27.0254 30.9707 26.7793 30.6777C26.5332 30.3848 26.4102 29.9688 26.4102 29.4297V25.498H25.2559V24.6602H26.4102V23.125H27.4941ZM33.6406 29.3184C33.6406 29.0254 33.5293 28.7988 33.3066 28.6387C33.0879 28.4746 32.7031 28.334 32.1523 28.2168C31.6055 28.0996 31.1699 27.959 30.8457 27.7949C30.5254 27.6309 30.2871 27.4355 30.1309 27.209C29.9785 26.9824 29.9023 26.7129 29.9023 26.4004C29.9023 25.8809 30.1211 25.4414 30.5586 25.082C31 24.7227 31.5625 24.543 32.2461 24.543C32.9648 24.543 33.5469 24.7285 33.9922 25.0996C34.4414 25.4707 34.666 25.9453 34.666 26.5234H33.5762C33.5762 26.2266 33.4492 25.9707 33.1953 25.7559C32.9453 25.541 32.6289 25.4336 32.2461 25.4336C31.8516 25.4336 31.543 25.5195 31.3203 25.6914C31.0977 25.8633 30.9863 26.0879 30.9863 26.3652C30.9863 26.627 31.0898 26.8242 31.2969 26.957C31.5039 27.0898 31.877 27.2168 32.416 27.3379C32.959 27.459 33.3984 27.6035 33.7344 27.7715C34.0703 27.9395 34.3184 28.1426 34.4785 28.3809C34.6426 28.6152 34.7246 28.9023 34.7246 29.2422C34.7246 29.8086 34.498 30.2637 34.0449 30.6074C33.5918 30.9473 33.0039 31.1172 32.2812 31.1172C31.7734 31.1172 31.3242 31.0273 30.9336 30.8477C30.543 30.668 30.2363 30.418 30.0137 30.0977C29.7949 29.7734 29.6855 29.4238 29.6855 29.0488H30.7695C30.7891 29.4121 30.9336 29.7012 31.2031 29.916C31.4766 30.127 31.8359 30.2324 32.2812 30.2324C32.6914 30.2324 33.0195 30.1504 33.2656 29.9863C33.5156 29.8184 33.6406 29.5957 33.6406 29.3184Z" fill="black"/>
<path d="M75.375 6.625C75.375 7.18229 75.2318 7.67969 74.9453 8.11719C74.6589 8.54948 74.2682 8.89062 73.7734 9.14062C74.3672 9.41667 74.8229 9.79427 75.1406 10.2734C75.4635 10.7526 75.625 11.2943 75.625 11.8984C75.625 12.8984 75.2865 13.6927 74.6094 14.2812C73.9323 14.8646 73.0312 15.1562 71.9062 15.1562C70.776 15.1562 69.8698 14.862 69.1875 14.2734C68.5104 13.6849 68.1719 12.8932 68.1719 11.8984C68.1719 11.2891 68.3333 10.7422 68.6562 10.2578C68.9792 9.77344 69.4323 9.40104 70.0156 9.14062C69.526 8.89062 69.138 8.54948 68.8516 8.11719C68.5703 7.67969 68.4297 7.18229 68.4297 6.625C68.4297 5.65625 68.7422 4.88802 69.3672 4.32031C69.9922 3.7526 70.8359 3.46875 71.8984 3.46875C72.9661 3.46875 73.8125 3.7526 74.4375 4.32031C75.0625 4.88802 75.375 5.65625 75.375 6.625ZM73.7266 11.8047C73.7266 11.2422 73.5573 10.7891 73.2188 10.4453C72.8854 10.0964 72.4427 9.92188 71.8906 9.92188C71.3385 9.92188 70.8958 10.0938 70.5625 10.4375C70.2344 10.7812 70.0703 11.237 70.0703 11.8047C70.0703 12.362 70.2318 12.8073 70.5547 13.1406C70.8828 13.474 71.3333 13.6406 71.9062 13.6406C72.4792 13.6406 72.9245 13.4792 73.2422 13.1562C73.5651 12.8333 73.7266 12.3828 73.7266 11.8047ZM73.4844 6.69531C73.4844 6.20052 73.3411 5.79427 73.0547 5.47656C72.7682 5.15365 72.3828 4.99219 71.8984 4.99219C71.4141 4.99219 71.0312 5.14583 70.75 5.45312C70.4688 5.75521 70.3281 6.16927 70.3281 6.69531C70.3281 7.21615 70.4688 7.63021 70.75 7.9375C71.0365 8.24479 71.4219 8.39844 71.9062 8.39844C72.3906 8.39844 72.7734 8.24479 73.0547 7.9375C73.3411 7.63021 73.4844 7.21615 73.4844 6.69531ZM82.6875 10.2422C82.0521 10.9141 81.3099 11.25 80.4609 11.25C79.4609 11.25 78.6641 10.901 78.0703 10.2031C77.4766 9.5 77.1797 8.57812 77.1797 7.4375C77.1797 6.6875 77.3307 6.00781 77.6328 5.39844C77.9349 4.78906 78.3646 4.3151 78.9219 3.97656C79.4792 3.63802 80.125 3.46875 80.8594 3.46875C82.0052 3.46875 82.9141 3.89583 83.5859 4.75C84.2578 5.60417 84.5938 6.7474 84.5938 8.17969V8.71094C84.5938 10.763 84.1302 12.3281 83.2031 13.4062C82.276 14.4844 80.8932 15.0312 79.0547 15.0469H78.8281V13.4766H79.1016C80.2214 13.4609 81.0807 13.1927 81.6797 12.6719C82.2786 12.1458 82.6146 11.3359 82.6875 10.2422ZM80.8594 9.76562C81.2396 9.76562 81.5964 9.65625 81.9297 9.4375C82.263 9.21875 82.5208 8.91667 82.7031 8.53125V7.78906C82.7031 6.95052 82.5312 6.27604 82.1875 5.76562C81.8438 5.25521 81.3984 5 80.8516 5C80.3047 5 79.8672 5.22656 79.5391 5.67969C79.2161 6.1276 79.0547 6.69531 79.0547 7.38281C79.0547 8.09635 79.2188 8.67188 79.5469 9.10938C79.875 9.54688 80.3125 9.76562 80.8594 9.76562ZM93.5625 6.625C93.5625 7.18229 93.4193 7.67969 93.1328 8.11719C92.8464 8.54948 92.4557 8.89062 91.9609 9.14062C92.5547 9.41667 93.0104 9.79427 93.3281 10.2734C93.651 10.7526 93.8125 11.2943 93.8125 11.8984C93.8125 12.8984 93.474 13.6927 92.7969 14.2812C92.1198 14.8646 91.2188 15.1562 90.0938 15.1562C88.9635 15.1562 88.0573 14.862 87.375 14.2734C86.6979 13.6849 86.3594 12.8932 86.3594 11.8984C86.3594 11.2891 86.5208 10.7422 86.8438 10.2578C87.1667 9.77344 87.6198 9.40104 88.2031 9.14062C87.7135 8.89062 87.3255 8.54948 87.0391 8.11719C86.7578 7.67969 86.6172 7.18229 86.6172 6.625C86.6172 5.65625 86.9297 4.88802 87.5547 4.32031C88.1797 3.7526 89.0234 3.46875 90.0859 3.46875C91.1536 3.46875 92 3.7526 92.625 4.32031C93.25 4.88802 93.5625 5.65625 93.5625 6.625ZM91.9141 11.8047C91.9141 11.2422 91.7448 10.7891 91.4062 10.4453C91.0729 10.0964 90.6302 9.92188 90.0781 9.92188C89.526 9.92188 89.0833 10.0938 88.75 10.4375C88.4219 10.7812 88.2578 11.237 88.2578 11.8047C88.2578 12.362 88.4193 12.8073 88.7422 13.1406C89.0703 13.474 89.5208 13.6406 90.0938 13.6406C90.6667 13.6406 91.112 13.4792 91.4297 13.1562C91.7526 12.8333 91.9141 12.3828 91.9141 11.8047ZM91.6719 6.69531C91.6719 6.20052 91.5286 5.79427 91.2422 5.47656C90.9557 5.15365 90.5703 4.99219 90.0859 4.99219C89.6016 4.99219 89.2188 5.14583 88.9375 5.45312C88.6562 5.75521 88.5156 6.16927 88.5156 6.69531C88.5156 7.21615 88.6562 7.63021 88.9375 7.9375C89.224 8.24479 89.6094 8.39844 90.0938 8.39844C90.5781 8.39844 90.9609 8.24479 91.2422 7.9375C91.5286 7.63021 91.6719 7.21615 91.6719 6.69531ZM60.8613 27.2324H57.2812V31H56.1562V22.4688H61.4414V23.3945H57.2812V26.3125H60.8613V27.2324ZM62.2031 27.7715C62.2031 27.1504 62.3242 26.5918 62.5664 26.0957C62.8125 25.5996 63.1523 25.2168 63.5859 24.9473C64.0234 24.6777 64.5215 24.543 65.0801 24.543C65.9434 24.543 66.6406 24.8418 67.1719 25.4395C67.707 26.0371 67.9746 26.832 67.9746 27.8242V27.9004C67.9746 28.5176 67.8555 29.0723 67.6172 29.5645C67.3828 30.0527 67.0449 30.4336 66.6035 30.707C66.166 30.9805 65.6621 31.1172 65.0918 31.1172C64.2324 31.1172 63.5352 30.8184 63 30.2207C62.4688 29.623 62.2031 28.832 62.2031 27.8477V27.7715ZM63.293 27.9004C63.293 28.6035 63.4551 29.168 63.7793 29.5938C64.1074 30.0195 64.5449 30.2324 65.0918 30.2324C65.6426 30.2324 66.0801 30.0176 66.4043 29.5879C66.7285 29.1543 66.8906 28.5488 66.8906 27.7715C66.8906 27.0762 66.7246 26.5137 66.3926 26.084C66.0645 25.6504 65.627 25.4336 65.0801 25.4336C64.5449 25.4336 64.1133 25.6465 63.7852 26.0723C63.457 26.498 63.293 27.1074 63.293 27.9004ZM70.5117 31H69.4277V22H70.5117V31ZM73.4297 31H72.3457V22H73.4297V31ZM74.8828 27.7715C74.8828 27.1504 75.0039 26.5918 75.2461 26.0957C75.4922 25.5996 75.832 25.2168 76.2656 24.9473C76.7031 24.6777 77.2012 24.543 77.7598 24.543C78.623 24.543 79.3203 24.8418 79.8516 25.4395C80.3867 26.0371 80.6543 26.832 80.6543 27.8242V27.9004C80.6543 28.5176 80.5352 29.0723 80.2969 29.5645C80.0625 30.0527 79.7246 30.4336 79.2832 30.707C78.8457 30.9805 78.3418 31.1172 77.7715 31.1172C76.9121 31.1172 76.2148 30.8184 75.6797 30.2207C75.1484 29.623 74.8828 28.832 74.8828 27.8477V27.7715ZM75.9727 27.9004C75.9727 28.6035 76.1348 29.168 76.459 29.5938C76.7871 30.0195 77.2246 30.2324 77.7715 30.2324C78.3223 30.2324 78.7598 30.0176 79.084 29.5879C79.4082 29.1543 79.5703 28.5488 79.5703 27.7715C79.5703 27.0762 79.4043 26.5137 79.0723 26.084C78.7441 25.6504 78.3066 25.4336 77.7598 25.4336C77.2246 25.4336 76.793 25.6465 76.4648 26.0723C76.1367 26.498 75.9727 27.1074 75.9727 27.9004ZM87.627 29.5059L88.8457 24.6602H89.9297L88.084 31H87.2051L85.6641 26.1953L84.1641 31H83.2852L81.4453 24.6602H82.5234L83.7715 29.4062L85.248 24.6602H86.1211L87.627 29.5059ZM93.668 31.1172C92.8086 31.1172 92.1094 30.8359 91.5703 30.2734C91.0312 29.707 90.7617 28.9512 90.7617 28.0059V27.8066C90.7617 27.1777 90.8809 26.6172 91.1191 26.125C91.3613 25.6289 91.6973 25.2422 92.127 24.9648C92.5605 24.6836 93.0293 24.543 93.5332 24.543C94.3574 24.543 94.998 24.8145 95.4551 25.3574C95.9121 25.9004 96.1406 26.6777 96.1406 27.6895V28.1406H91.8457C91.8613 28.7656 92.043 29.2715 92.3906 29.6582C92.7422 30.041 93.1875 30.2324 93.7266 30.2324C94.1094 30.2324 94.4336 30.1543 94.6992 29.998C94.9648 29.8418 95.1973 29.6348 95.3965 29.377L96.0586 29.8926C95.5273 30.709 94.7305 31.1172 93.668 31.1172ZM93.5332 25.4336C93.0957 25.4336 92.7285 25.5938 92.4316 25.9141C92.1348 26.2305 91.9512 26.6758 91.8809 27.25H95.0566V27.168C95.0254 26.6172 94.877 26.1914 94.6113 25.8906C94.3457 25.5859 93.9863 25.4336 93.5332 25.4336ZM100.465 25.6328C100.301 25.6055 100.123 25.5918 99.9316 25.5918C99.2207 25.5918 98.7383 25.8945 98.4844 26.5V31H97.4004V24.6602H98.4551L98.4727 25.3926C98.8281 24.8262 99.332 24.543 99.9844 24.543C100.195 24.543 100.355 24.5703 100.465 24.625V25.6328ZM105.158 29.3184C105.158 29.0254 105.047 28.7988 104.824 28.6387C104.605 28.4746 104.221 28.334 103.67 28.2168C103.123 28.0996 102.688 27.959 102.363 27.7949C102.043 27.6309 101.805 27.4355 101.648 27.209C101.496 26.9824 101.42 26.7129 101.42 26.4004C101.42 25.8809 101.639 25.4414 102.076 25.082C102.518 24.7227 103.08 24.543 103.764 24.543C104.482 24.543 105.064 24.7285 105.51 25.0996C105.959 25.4707 106.184 25.9453 106.184 26.5234H105.094C105.094 26.2266 104.967 25.9707 104.713 25.7559C104.463 25.541 104.146 25.4336 103.764 25.4336C103.369 25.4336 103.061 25.5195 102.838 25.6914C102.615 25.8633 102.504 26.0879 102.504 26.3652C102.504 26.627 102.607 26.8242 102.814 26.957C103.021 27.0898 103.395 27.2168 103.934 27.3379C104.477 27.459 104.916 27.6035 105.252 27.7715C105.588 27.9395 105.836 28.1426 105.996 28.3809C106.16 28.6152 106.242 28.9023 106.242 29.2422C106.242 29.8086 106.016 30.2637 105.562 30.6074C105.109 30.9473 104.521 31.1172 103.799 31.1172C103.291 31.1172 102.842 31.0273 102.451 30.8477C102.061 30.668 101.754 30.418 101.531 30.0977C101.312 29.7734 101.203 29.4238 101.203 29.0488H102.287C102.307 29.4121 102.451 29.7012 102.721 29.916C102.994 30.127 103.354 30.2324 103.799 30.2324C104.209 30.2324 104.537 30.1504 104.783 29.9863C105.033 29.8184 105.158 29.5957 105.158 29.3184Z" fill="black"/>
<path d="M134.047 15H132.156V5.86719L129.367 6.82031V5.21875L133.805 3.58594H134.047V15ZM138.391 17.5625L137.367 16.9531C137.669 16.4792 137.875 16.0651 137.984 15.7109C138.099 15.362 138.159 15.0052 138.164 14.6406V13.1641H139.875L139.867 14.5312C139.862 15.0833 139.721 15.6354 139.445 16.1875C139.174 16.7448 138.823 17.2031 138.391 17.5625ZM143.711 8.44531H144.867C145.451 8.4401 145.911 8.28906 146.25 7.99219C146.594 7.69531 146.766 7.26562 146.766 6.70312C146.766 6.16146 146.622 5.74219 146.336 5.44531C146.055 5.14323 145.622 4.99219 145.039 4.99219C144.529 4.99219 144.109 5.14062 143.781 5.4375C143.453 5.72917 143.289 6.11198 143.289 6.58594H141.391C141.391 6.0026 141.544 5.47135 141.852 4.99219C142.164 4.51302 142.596 4.14062 143.148 3.875C143.706 3.60417 144.328 3.46875 145.016 3.46875C146.151 3.46875 147.042 3.75521 147.688 4.32812C148.339 4.89583 148.664 5.6875 148.664 6.70312C148.664 7.21354 148.5 7.69531 148.172 8.14844C147.849 8.59635 147.43 8.9349 146.914 9.16406C147.539 9.3776 148.013 9.71354 148.336 10.1719C148.664 10.6302 148.828 11.1771 148.828 11.8125C148.828 12.8333 148.477 13.6458 147.773 14.25C147.076 14.8542 146.156 15.1562 145.016 15.1562C143.922 15.1562 143.026 14.8646 142.328 14.2812C141.63 13.6979 141.281 12.9219 141.281 11.9531H143.18C143.18 12.4531 143.346 12.8594 143.68 13.1719C144.018 13.4844 144.471 13.6406 145.039 13.6406C145.628 13.6406 146.091 13.4844 146.43 13.1719C146.768 12.8594 146.938 12.4062 146.938 11.8125C146.938 11.2135 146.76 10.7526 146.406 10.4297C146.052 10.1068 145.526 9.94531 144.828 9.94531H143.711V8.44531ZM155.75 15H153.859V5.86719L151.07 6.82031V5.21875L155.508 3.58594H155.75V15ZM167.117 10.2109C167.117 11.8464 166.81 13.0807 166.195 13.9141C165.586 14.7422 164.656 15.1562 163.406 15.1562C162.177 15.1562 161.25 14.7526 160.625 13.9453C160.005 13.1328 159.688 11.9323 159.672 10.3438V8.375C159.672 6.73958 159.977 5.51302 160.586 4.69531C161.201 3.8776 162.135 3.46875 163.391 3.46875C164.635 3.46875 165.562 3.86719 166.172 4.66406C166.786 5.46094 167.102 6.65365 167.117 8.24219V10.2109ZM165.219 8.08594C165.219 7.01823 165.073 6.23698 164.781 5.74219C164.49 5.24219 164.026 4.99219 163.391 4.99219C162.771 4.99219 162.315 5.22917 162.023 5.70312C161.732 6.17188 161.578 6.90625 161.562 7.90625V10.4844C161.562 11.5469 161.711 12.3385 162.008 12.8594C162.305 13.3802 162.771 13.6406 163.406 13.6406C164.016 13.6406 164.466 13.401 164.758 12.9219C165.049 12.4375 165.203 11.6823 165.219 10.6562V8.08594ZM128.031 27.2324H124.451V31H123.326V22.4688H128.611V23.3945H124.451V26.3125H128.031V27.2324ZM129.373 27.7715C129.373 27.1504 129.494 26.5918 129.736 26.0957C129.982 25.5996 130.322 25.2168 130.756 24.9473C131.193 24.6777 131.691 24.543 132.25 24.543C133.113 24.543 133.811 24.8418 134.342 25.4395C134.877 26.0371 135.145 26.832 135.145 27.8242V27.9004C135.145 28.5176 135.025 29.0723 134.787 29.5645C134.553 30.0527 134.215 30.4336 133.773 30.707C133.336 30.9805 132.832 31.1172 132.262 31.1172C131.402 31.1172 130.705 30.8184 130.17 30.2207C129.639 29.623 129.373 28.832 129.373 27.8477V27.7715ZM130.463 27.9004C130.463 28.6035 130.625 29.168 130.949 29.5938C131.277 30.0195 131.715 30.2324 132.262 30.2324C132.812 30.2324 133.25 30.0176 133.574 29.5879C133.898 29.1543 134.061 28.5488 134.061 27.7715C134.061 27.0762 133.895 26.5137 133.562 26.084C133.234 25.6504 132.797 25.4336 132.25 25.4336C131.715 25.4336 131.283 25.6465 130.955 26.0723C130.627 26.498 130.463 27.1074 130.463 27.9004ZM137.682 31H136.598V22H137.682V31ZM140.6 31H139.516V22H140.6V31ZM142.053 27.7715C142.053 27.1504 142.174 26.5918 142.416 26.0957C142.662 25.5996 143.002 25.2168 143.436 24.9473C143.873 24.6777 144.371 24.543 144.93 24.543C145.793 24.543 146.49 24.8418 147.021 25.4395C147.557 26.0371 147.824 26.832 147.824 27.8242V27.9004C147.824 28.5176 147.705 29.0723 147.467 29.5645C147.232 30.0527 146.895 30.4336 146.453 30.707C146.016 30.9805 145.512 31.1172 144.941 31.1172C144.082 31.1172 143.385 30.8184 142.85 30.2207C142.318 29.623 142.053 28.832 142.053 27.8477V27.7715ZM143.143 27.9004C143.143 28.6035 143.305 29.168 143.629 29.5938C143.957 30.0195 144.395 30.2324 144.941 30.2324C145.492 30.2324 145.93 30.0176 146.254 29.5879C146.578 29.1543 146.74 28.5488 146.74 27.7715C146.74 27.0762 146.574 26.5137 146.242 26.084C145.914 25.6504 145.477 25.4336 144.93 25.4336C144.395 25.4336 143.963 25.6465 143.635 26.0723C143.307 26.498 143.143 27.1074 143.143 27.9004ZM154.797 29.5059L156.016 24.6602H157.1L155.254 31H154.375L152.834 26.1953L151.334 31H150.455L148.615 24.6602H149.693L150.941 29.4062L152.418 24.6602H153.291L154.797 29.5059ZM159.385 31H158.301V24.6602H159.385V31ZM158.213 22.9785C158.213 22.8027 158.266 22.6543 158.371 22.5332C158.48 22.4121 158.641 22.3516 158.852 22.3516C159.062 22.3516 159.223 22.4121 159.332 22.5332C159.441 22.6543 159.496 22.8027 159.496 22.9785C159.496 23.1543 159.441 23.3008 159.332 23.418C159.223 23.5352 159.062 23.5938 158.852 23.5938C158.641 23.5938 158.48 23.5352 158.371 23.418C158.266 23.3008 158.213 23.1543 158.213 22.9785ZM162.15 24.6602L162.186 25.457C162.67 24.8477 163.303 24.543 164.084 24.543C165.424 24.543 166.1 25.2988 166.111 26.8105V31H165.027V26.8047C165.023 26.3477 164.918 26.0098 164.711 25.791C164.508 25.5723 164.189 25.4629 163.756 25.4629C163.404 25.4629 163.096 25.5566 162.83 25.7441C162.564 25.9316 162.357 26.1777 162.209 26.4824V31H161.125V24.6602H162.15ZM167.488 27.7773C167.488 26.7891 167.717 26.0039 168.174 25.4219C168.631 24.8359 169.236 24.543 169.99 24.543C170.764 24.543 171.367 24.8164 171.801 25.3633L171.854 24.6602H172.844V30.8477C172.844 31.668 172.6 32.3145 172.111 32.7871C171.627 33.2598 170.975 33.4961 170.154 33.4961C169.697 33.4961 169.25 33.3984 168.812 33.2031C168.375 33.0078 168.041 32.7402 167.811 32.4004L168.373 31.75C168.838 32.3242 169.406 32.6113 170.078 32.6113C170.605 32.6113 171.016 32.4629 171.309 32.166C171.605 31.8691 171.754 31.4512 171.754 30.9121V30.3672C171.32 30.8672 170.729 31.1172 169.979 31.1172C169.236 31.1172 168.635 30.8184 168.174 30.2207C167.717 29.623 167.488 28.8086 167.488 27.7773ZM168.578 27.9004C168.578 28.6152 168.725 29.1777 169.018 29.5879C169.311 29.9941 169.721 30.1973 170.248 30.1973C170.932 30.1973 171.434 29.8867 171.754 29.2656V26.3711C171.422 25.7656 170.924 25.4629 170.26 25.4629C169.732 25.4629 169.32 25.668 169.023 26.0781C168.727 26.4883 168.578 27.0957 168.578 27.9004Z" fill="black"/>
</svg>
