<svg width="373" height="44" viewBox="0 0 373 44" fill="none" xmlns="http://www.w3.org/2000/svg">
<path opacity="0.35" d="M338.475 17.8333H351.824C352.579 17.8333 353.115 17.8337 353.535 17.868C353.948 17.9018 354.205 17.9661 354.408 18.0695C354.815 18.2772 355.147 18.6087 355.355 19.0164C355.458 19.2193 355.522 19.4755 355.556 19.8893C355.59 20.3088 355.591 20.845 355.591 21.6V24.4C355.591 25.155 355.59 25.6912 355.556 26.1107C355.522 26.5245 355.458 26.7807 355.355 26.9836C355.147 27.3913 354.815 27.7228 354.408 27.9305C354.205 28.0339 353.948 28.0982 353.535 28.132C353.115 28.1663 352.579 28.1667 351.824 28.1667H338.475C337.72 28.1667 337.184 28.1663 336.764 28.132C336.35 28.0982 336.094 28.0339 335.891 27.9305C335.483 27.7228 335.152 27.3913 334.944 26.9836C334.841 26.7807 334.776 26.5245 334.743 26.1107C334.708 25.6912 334.708 25.155 334.708 24.4V21.6C334.708 20.845 334.708 20.3088 334.743 19.8893C334.776 19.4755 334.841 19.2193 334.944 19.0164C335.152 18.6087 335.483 18.2772 335.891 18.0695C336.094 17.9661 336.35 17.9018 336.764 17.868C337.184 17.8337 337.72 17.8333 338.475 17.8333Z" stroke="black"/>
<path opacity="0.4" d="M357.085 21V25C357.886 24.6612 358.406 23.8731 358.406 23C358.406 22.1269 357.886 21.3388 357.085 21" fill="black"/>
<path d="M336.197 21.4667C336.197 20.7199 336.197 20.3466 336.343 20.0613C336.47 19.8105 336.674 19.6065 336.925 19.4787C337.21 19.3333 337.584 19.3333 338.331 19.3333H351.968C352.715 19.3333 353.088 19.3333 353.373 19.4787C353.624 19.6065 353.828 19.8105 353.956 20.0613C354.101 20.3466 354.101 20.7199 354.101 21.4667V24.5333C354.101 25.2801 354.101 25.6534 353.956 25.9387C353.828 26.1895 353.624 26.3935 353.373 26.5213C353.088 26.6667 352.715 26.6667 351.968 26.6667H338.331C337.584 26.6667 337.21 26.6667 336.925 26.5213C336.674 26.3935 336.47 26.1895 336.343 25.9387C336.197 25.6534 336.197 25.2801 336.197 24.5333V21.4667Z" fill="black"/>
<path fill-rule="evenodd" clip-rule="evenodd" d="M321.606 19.608C323.81 19.6081 325.93 20.4595 327.527 21.9863C327.647 22.1042 327.84 22.1027 327.958 21.983L329.108 20.8163C329.168 20.7556 329.201 20.6734 329.201 20.5878C329.2 20.5022 329.166 20.4203 329.105 20.3603C324.913 16.3208 318.298 16.3208 314.106 20.3603C314.045 20.4203 314.011 20.5021 314.01 20.5877C314.009 20.6733 314.043 20.7556 314.103 20.8163L315.253 21.983C315.371 22.1029 315.564 22.1044 315.684 21.9863C317.282 20.4594 319.402 19.608 321.606 19.608ZM321.606 23.4037C322.817 23.4036 323.985 23.8561 324.882 24.6733C325.004 24.7893 325.195 24.7868 325.313 24.6677L326.462 23.501C326.522 23.4398 326.556 23.3568 326.555 23.2705C326.554 23.1843 326.519 23.1019 326.457 23.042C323.724 20.4856 319.49 20.4856 316.757 23.042C316.695 23.1019 316.66 23.1843 316.659 23.2706C316.658 23.3569 316.692 23.4399 316.753 23.501L317.901 24.6677C318.019 24.7868 318.21 24.7893 318.332 24.6733C319.229 23.8567 320.396 23.4042 321.606 23.4037ZM323.907 25.9575C323.908 26.044 323.875 26.1274 323.813 26.188L321.826 28.2037C321.768 28.2629 321.689 28.2962 321.606 28.2962C321.523 28.2962 321.444 28.2629 321.385 28.2037L319.398 26.188C319.337 26.1273 319.303 26.0439 319.305 25.9574C319.307 25.8709 319.344 25.789 319.408 25.731C320.677 24.6521 322.535 24.6521 323.804 25.731C323.868 25.789 323.905 25.871 323.907 25.9575Z" fill="black"/>
<path fill-rule="evenodd" clip-rule="evenodd" d="M308.015 17.6667H307.02C306.471 17.6667 306.026 18.1144 306.026 18.6667V27.3333C306.026 27.8856 306.471 28.3333 307.02 28.3333H308.015C308.564 28.3333 309.01 27.8856 309.01 27.3333V18.6667C309.01 18.1144 308.564 17.6667 308.015 17.6667ZM302.379 20H303.373C303.923 20 304.368 20.4477 304.368 21V27.3333C304.368 27.8856 303.923 28.3333 303.373 28.3333H302.379C301.829 28.3333 301.384 27.8856 301.384 27.3333V21C301.384 20.4477 301.829 20 302.379 20ZM298.732 22.3333H297.737C297.188 22.3333 296.742 22.781 296.742 23.3333V27.3333C296.742 27.8856 297.188 28.3333 297.737 28.3333H298.732C299.281 28.3333 299.726 27.8856 299.726 27.3333V23.3333C299.726 22.781 299.281 22.3333 298.732 22.3333ZM294.09 24.3333H293.095C292.546 24.3333 292.1 24.781 292.1 25.3333V27.3333C292.1 27.8856 292.546 28.3333 293.095 28.3333H294.09C294.639 28.3333 295.084 27.8856 295.084 27.3333V25.3333C295.084 24.781 294.639 24.3333 294.09 24.3333Z" fill="black"/>
<path d="M37.172 28.5863C39.86 28.5863 41.4567 26.4843 41.4567 22.9247C41.4567 21.5844 41.2003 20.4565 40.7096 19.5849C39.9992 18.2299 38.776 17.4975 37.2306 17.4975C34.9308 17.4975 33.3048 19.0429 33.3048 21.2109C33.3048 23.247 34.7697 24.7265 36.7838 24.7265C38.0216 24.7265 39.025 24.1479 39.5231 23.1445H39.5451C39.5451 23.1445 39.5744 23.1445 39.5817 23.1445C39.5963 23.1445 39.6476 23.1445 39.6476 23.1445C39.6476 25.5614 38.7321 27.0043 37.1867 27.0043C36.2785 27.0043 35.5753 26.5063 35.3336 25.7079H33.4513C33.7663 27.4438 35.2384 28.5863 37.172 28.5863ZM37.2379 23.225C36.0221 23.225 35.1579 22.3608 35.1579 21.1523C35.1579 19.9731 36.0661 19.0722 37.2453 19.0722C38.4245 19.0722 39.3327 19.9877 39.3327 21.1816C39.3327 22.3608 38.4464 23.225 37.2379 23.225ZM44.4746 27.2094C45.1704 27.2094 45.6464 26.7113 45.6464 26.0522C45.6464 25.3857 45.1704 24.8949 44.4746 24.8949C43.7861 24.8949 43.3027 25.3857 43.3027 26.0522C43.3027 26.7113 43.7861 27.2094 44.4746 27.2094ZM44.4746 21.7162C45.1704 21.7162 45.6464 21.2255 45.6464 20.5663C45.6464 19.8998 45.1704 19.4091 44.4746 19.4091C43.7861 19.4091 43.3027 19.8998 43.3027 20.5663C43.3027 21.2255 43.7861 21.7162 44.4746 21.7162ZM52.6487 28.33H54.4578V26.3598H55.886V24.7631H54.4578V17.7612H51.7917C49.9241 20.5737 48.4373 22.9247 47.4851 24.6752V26.3598H52.6487V28.33ZM49.2356 24.6972C50.4661 22.5292 51.5647 20.7934 52.5754 19.2992H52.678V24.8071H49.2356V24.6972ZM59.9146 28.33H61.8042V17.7612H59.9219L57.1607 19.6947V21.5112L59.7901 19.6654H59.9146V28.33Z" fill="black"/>
</svg>
